<svg width="280" height="280" viewBox="0 0 280 280" fill="none" xmlns="http://www.w3.org/2000/svg">
<rect width="280" height="280" transform="translate(0 0.000366211)" fill="#B1D9F5"/>
<path d="M47.6922 91.2825C53.0556 91.2825 55.3455 92.8087 58.8108 95.1188C63.1011 97.9789 68.44 101.539 78.4609 101.539C88.4822 101.539 93.8214 97.9793 98.1113 95.1188C101.576 92.8087 103.865 91.2832 109.227 91.2832C114.59 91.2832 116.879 92.8093 120.344 95.1188C124.635 97.9796 129.974 101.539 139.996 101.539C150.017 101.539 155.357 97.9793 159.648 95.1188C163.112 92.809 165.402 91.2832 170.765 91.2832C176.129 91.2832 178.419 92.8093 181.885 95.1195C186.176 97.9796 191.515 101.54 201.537 101.54C211.558 101.54 216.898 97.9799 221.188 95.1195C224.654 92.8093 226.944 91.2832 232.308 91.2832C236.556 91.2832 240 87.839 240 83.591C240 79.3426 236.556 75.8982 232.308 75.8982C222.285 75.8982 216.945 79.458 212.654 82.3184C209.189 84.6286 206.9 86.1541 201.537 86.1541C196.173 86.1541 193.884 84.6279 190.418 82.3178C186.128 79.4576 180.788 75.8975 170.765 75.8975C160.744 75.8975 155.404 79.4573 151.113 82.3178C147.649 84.6279 145.359 86.1541 139.996 86.1541C134.632 86.1541 132.343 84.6279 128.878 82.3178C124.588 79.4576 119.247 75.8975 109.227 75.8975C99.2054 75.8975 93.8662 79.4573 89.5763 82.3178C86.1119 84.6279 83.8224 86.1534 78.4606 86.1534C73.0988 86.1534 70.8089 84.6273 67.3449 82.3178C63.054 79.457 57.7144 75.8969 47.6922 75.8969C43.4438 75.8978 40 79.342 40 83.5903C40 87.8387 43.4438 91.2825 47.6922 91.2825ZM232.308 127.18C222.286 127.18 216.946 130.74 212.655 133.6C209.19 135.91 206.9 137.436 201.538 137.436C196.174 137.436 193.884 135.91 190.419 133.6C186.128 130.74 180.788 127.179 170.766 127.179C160.745 127.179 155.405 130.739 151.114 133.6C147.649 135.909 145.36 137.435 139.997 137.435C134.633 137.435 132.344 135.909 128.878 133.599C124.588 130.739 119.248 127.179 109.227 127.179C99.2061 127.179 93.8668 130.739 89.577 133.599C86.1126 135.909 83.823 137.435 78.4612 137.435C73.0995 137.435 70.8096 135.908 67.3455 133.599C63.0546 130.739 57.7151 127.179 47.6928 127.179C43.4438 127.18 40 130.624 40 134.872C40 139.121 43.4438 142.564 47.6922 142.564C53.0556 142.564 55.3455 144.091 58.8108 146.401C63.1011 149.261 68.44 152.821 78.4609 152.821C88.4822 152.821 93.8214 149.261 98.1113 146.401C101.576 144.091 103.865 142.565 109.227 142.565C114.59 142.565 116.879 144.091 120.344 146.401C124.635 149.261 129.974 152.821 139.996 152.821C150.017 152.821 155.357 149.261 159.648 146.401C163.112 144.091 165.402 142.564 170.765 142.564C176.129 142.564 178.419 144.091 181.885 146.401C186.176 149.261 191.515 152.821 201.537 152.821C211.558 152.821 216.898 149.261 221.188 146.401C224.654 144.091 226.944 142.564 232.308 142.564C236.556 142.564 240 139.12 240 134.872C240.001 130.624 236.557 127.18 232.308 127.18ZM232.308 178.462C222.286 178.462 216.946 182.022 212.655 184.882C209.19 187.193 206.9 188.719 201.538 188.719C196.174 188.719 193.884 187.193 190.419 184.882C186.128 182.022 180.788 178.462 170.766 178.462C160.745 178.462 155.405 182.022 151.114 184.882C147.649 187.192 145.36 188.719 139.997 188.719C134.633 188.719 132.344 187.193 128.878 184.882C124.588 182.022 119.248 178.462 109.227 178.462C99.2061 178.462 93.8668 182.022 89.577 184.882C86.1126 187.193 83.823 188.719 78.4612 188.719C73.0995 188.719 70.8096 187.193 67.3455 184.882C63.0546 182.022 57.7151 178.462 47.6928 178.462C43.4438 178.462 40 181.906 40 186.154C40 190.403 43.4438 193.847 47.6922 193.847C53.0556 193.847 55.3455 195.373 58.8108 197.684C63.1011 200.544 68.44 204.104 78.4609 204.104C88.4822 204.104 93.8214 200.544 98.1113 197.684C101.576 195.373 103.865 193.848 109.227 193.848C114.59 193.848 116.879 195.374 120.344 197.684C124.635 200.544 129.974 204.104 139.996 204.104C150.017 204.104 155.357 200.544 159.648 197.684C163.112 195.373 165.402 193.847 170.765 193.847C176.129 193.847 178.419 195.373 181.885 197.684C186.176 200.544 191.515 204.103 201.537 204.103C211.558 204.103 216.898 200.544 221.188 197.684C224.654 195.373 226.944 193.847 232.308 193.847C236.556 193.847 240 190.403 240 186.154C240.001 181.906 236.557 178.462 232.308 178.462Z" fill="black"/>
</svg>
